<?xml version="1.0" encoding="UTF-8" standalone="no"?>
<svg
   id="Layer_1"
   data-name="Layer 1"
   width="320"
   height="290"
   viewBox="0 0 320.00001 290.00001"
   version="1.1"
   sodipodi:docname="ps4.minimal.svg"
   inkscape:version="1.3.2 (091e20e, 2023-11-25, custom)"
   xmlns:inkscape="http://www.inkscape.org/namespaces/inkscape"
   xmlns:sodipodi="http://sodipodi.sourceforge.net/DTD/sodipodi-0.dtd"
   xmlns="http://www.w3.org/2000/svg"
   xmlns:svg="http://www.w3.org/2000/svg">
  <sodipodi:namedview
     id="namedview134"
     pagecolor="#ffffff"
     bordercolor="#666666"
     borderopacity="1.0"
     inkscape:showpageshadow="2"
     inkscape:pageopacity="0.0"
     inkscape:pagecheckerboard="0"
     inkscape:deskcolor="#d1d1d1"
     inkscape:zoom="1.4374677"
     inkscape:cx="411.83534"
     inkscape:cy="267.48427"
     inkscape:window-width="1920"
     inkscape:window-height="1057"
     inkscape:window-x="2552"
     inkscape:window-y="119"
     inkscape:window-maximized="1"
     inkscape:current-layer="Layer_1" />
  <defs
     id="defs37">
    <style
       id="style1">
      .cls-1 {
        fill: none;
      }

      .cls-2 {
        fill: #b3b3b3;
      }

      .cls-3 {
        fill: #0d0e13;
      }

      .cls-4 {
        opacity: 0.06;
      }

      .cls-5 {
        fill: #fff;
      }

      .cls-6 {
        fill: #13161f;
      }

      .cls-7 {
        fill: #0f1015;
      }

      .cls-8 {
        fill: #121212;
      }

      .cls-9 {
        fill: #080808;
      }

      .cls-10 {
        fill: #1f1f1f;
      }

      .cls-11 {
        fill: #e6e6e6;
        opacity: 0.1;
      }

      .cls-11, .cls-12, .cls-13, .cls-14, .cls-17 {
        isolation: isolate;
      }

      .cls-12, .cls-14, .cls-29 {
        opacity: 0.08;
      }

      .cls-12 {
        fill: url(#SVGID_4_);
      }

      .cls-13 {
        opacity: 0.22;
      }

      .cls-14 {
        fill: url(#SVGID_5_);
      }

      .cls-15 {
        fill: #10111a;
      }

      .cls-16 {
        fill: #1a1a1a;
      }

      .cls-17 {
        opacity: 0.25;
      }

      .cls-18 {
        opacity: 0.12;
      }

      .cls-19 {
        fill: #0b0b0f;
      }

      .cls-20 {
        fill: url(#SVGID_6_);
      }

      .cls-21 {
        fill: #0f0f0f;
      }

      .cls-22 {
        fill: #f66;
      }

      .cls-23 {
        fill: #7cb2e8;
      }

      .cls-24 {
        fill: #ff69f8;
      }

      .cls-25 {
        fill: #40e2a0;
      }

      .cls-26 {
        fill: #050505;
        stroke: #000;
        stroke-miterlimit: 10;
        stroke-width: 2px;
      }

      .cls-27 {
        fill: #f2f2f2;
      }

      .cls-28 {
        fill: #0a0a0a;
      }

      .cls-30 {
        fill: #ccc;
      }
    </style>
    <pattern
       id="SVGID_4_"
       data-name="SVGID 4 "
       width="40"
       height="103"
       patternTransform="translate(-10082.69 7243.51) rotate(16) scale(0.34)"
       patternUnits="userSpaceOnUse"
       viewBox="0 0 40 103">
      <rect
         class="cls-1"
         width="40"
         height="103"
         id="rect1" />
      <g
         id="g18">
        <polygon
           class="cls-1"
           points="0 0 40 0 40 103 0 103 0 0"
           id="polygon1" />
        <g
           id="g17">
          <polygon
             class="cls-1"
             points="0 0 40 0 40 103 0 103 0 0"
             id="polygon2" />
          <polygon
             points="34.5 231.8 37.5 231.8 37.5 77.3 34.5 77.3 34.5 231.8"
             id="polygon3" />
          <polygon
             points="26.5 231.8 29.5 231.8 29.5 77.3 26.5 77.3 26.5 231.8"
             id="polygon4" />
          <polygon
             points="18.5 231.8 21.5 231.8 21.5 77.3 18.5 77.3 18.5 231.8"
             id="polygon5" />
          <polygon
             points="10.5 231.8 13.5 231.8 13.5 77.3 10.5 77.3 10.5 231.8"
             id="polygon6" />
          <polygon
             points="2.5 231.8 5.5 231.8 5.5 77.3 2.5 77.3 2.5 231.8"
             id="polygon7" />
          <polygon
             points="34.5 128.8 37.5 128.8 37.5 -25.7 34.5 -25.7 34.5 128.8"
             id="polygon8" />
          <polygon
             points="26.5 128.8 29.5 128.8 29.5 -25.7 26.5 -25.7 26.5 128.8"
             id="polygon9" />
          <polygon
             points="18.5 128.8 21.5 128.8 21.5 -25.7 18.5 -25.7 18.5 128.8"
             id="polygon10" />
          <polygon
             points="10.5 128.8 13.5 128.8 13.5 -25.7 10.5 -25.7 10.5 128.8"
             id="polygon11" />
          <polygon
             points="2.5 128.8 5.5 128.8 5.5 -25.7 2.5 -25.7 2.5 128.8"
             id="polygon12" />
          <polygon
             points="34.5 25.8 37.5 25.8 37.5 -128.7 34.5 -128.7 34.5 25.8"
             id="polygon13" />
          <polygon
             points="26.5 25.8 29.5 25.8 29.5 -128.7 26.5 -128.7 26.5 25.8"
             id="polygon14" />
          <polygon
             points="18.5 25.8 21.5 25.8 21.5 -128.7 18.5 -128.7 18.5 25.8"
             id="polygon15" />
          <polygon
             points="10.5 25.8 13.5 25.8 13.5 -128.7 10.5 -128.7 10.5 25.8"
             id="polygon16" />
          <polygon
             points="2.5 25.8 5.5 25.8 5.5 -128.7 2.5 -128.7 2.5 25.8"
             id="polygon17" />
        </g>
      </g>
    </pattern>
    <pattern
       id="SVGID_5_"
       data-name="SVGID 5 "
       width="40"
       height="103"
       patternTransform="matrix(-0.33, 0.09, 0.09, 0.33, -21062.21, 7272.07)"
       patternUnits="userSpaceOnUse"
       viewBox="0 0 40 103">
      <rect
         class="cls-1"
         width="40"
         height="103"
         id="rect18" />
      <g
         id="g35">
        <polygon
           class="cls-1"
           points="0 0 40 0 40 103 0 103 0 0"
           id="polygon18" />
        <g
           id="g34">
          <polygon
             class="cls-1"
             points="0 0 40 0 40 103 0 103 0 0"
             id="polygon19" />
          <polygon
             points="34.5 231.8 37.5 231.8 37.5 77.3 34.5 77.3 34.5 231.8"
             id="polygon20" />
          <polygon
             points="26.5 231.8 29.5 231.8 29.5 77.3 26.5 77.3 26.5 231.8"
             id="polygon21" />
          <polygon
             points="18.5 231.8 21.5 231.8 21.5 77.3 18.5 77.3 18.5 231.8"
             id="polygon22" />
          <polygon
             points="10.5 231.8 13.5 231.8 13.5 77.3 10.5 77.3 10.5 231.8"
             id="polygon23" />
          <polygon
             points="2.5 231.8 5.5 231.8 5.5 77.3 2.5 77.3 2.5 231.8"
             id="polygon24" />
          <polygon
             points="34.5 128.8 37.5 128.8 37.5 -25.7 34.5 -25.7 34.5 128.8"
             id="polygon25" />
          <polygon
             points="26.5 128.8 29.5 128.8 29.5 -25.7 26.5 -25.7 26.5 128.8"
             id="polygon26" />
          <polygon
             points="18.5 128.8 21.5 128.8 21.5 -25.7 18.5 -25.7 18.5 128.8"
             id="polygon27" />
          <polygon
             points="10.5 128.8 13.5 128.8 13.5 -25.7 10.5 -25.7 10.5 128.8"
             id="polygon28" />
          <polygon
             points="2.5 128.8 5.5 128.8 5.5 -25.7 2.5 -25.7 2.5 128.8"
             id="polygon29" />
          <polygon
             points="34.5 25.8 37.5 25.8 37.5 -128.7 34.5 -128.7 34.5 25.8"
             id="polygon30" />
          <polygon
             points="26.5 25.8 29.5 25.8 29.5 -128.7 26.5 -128.7 26.5 25.8"
             id="polygon31" />
          <polygon
             points="18.5 25.8 21.5 25.8 21.5 -128.7 18.5 -128.7 18.5 25.8"
             id="polygon32" />
          <polygon
             points="10.5 25.8 13.5 25.8 13.5 -128.7 10.5 -128.7 10.5 25.8"
             id="polygon33" />
          <polygon
             points="2.5 25.8 5.5 25.8 5.5 -128.7 2.5 -128.7 2.5 25.8"
             id="polygon34" />
        </g>
      </g>
    </pattern>
    <pattern
       id="SVGID_6_"
       data-name="SVGID 6 "
       width="71"
       height="71"
       patternTransform="translate(-13881.41 2292.1) scale(0.1)"
       patternUnits="userSpaceOnUse"
       viewBox="0 0 71 71">
      <rect
         class="cls-1"
         width="71"
         height="71"
         id="rect35" />
      <g
         id="g37">
        <polygon
           class="cls-1"
           points="0 0 71 0 71 71 0 71 0 0"
           id="polygon35" />
        <g
           id="g36">
          <polygon
             class="cls-1"
             points="0 0 71 0 71 71 0 71 0 0"
             id="polygon36" />
          <path
             class="cls-2"
             d="M41.8,35.5a6.3,6.3,0,1,1-6.3-6.3A6.27,6.27,0,0,1,41.8,35.5Z"
             id="path36" />
        </g>
      </g>
    </pattern>
  </defs>
  <g
     id="g66"
     style="display:inline"
     inkscape:label="Dpad"
     transform="translate(-91.491184,-40)">
    <g
       id="g59">
      <path
         class="cls-16"
         d="m 141.2,247.2 c 1.4,-2 1.2,-2.9 1.2,-2.9 0,0 0.2,-0.9 -1.2,-2.9 -1.4,-2 -15,-13.6 -15.7,-14 -0.7,-0.4 -28.5,-2.2 -31.4,1.3 -2.9,3.5 -2.6,15.6 -2.6,15.6 0,0 -0.3,12.1 2.6,15.6 2.9,3.5 30.7,1.7 31.4,1.3 0.7,-0.4 14.3,-12 15.7,-14 z"
         id="path58" />
      <path
         class="cls-17"
         d="m 141.2,247.2 c 1.4,-2 1.2,-2.9 1.2,-2.9 0,0 0.2,-0.9 -1.2,-2.9 -0.9,-1.3 -6.9,-6.6 -11.2,-10.3 a 27.84,27.84 0 0 0 -3.4,13.2 26.73,26.73 0 0 0 3.4,13.2 c 4.3,-3.7 10.3,-9 11.2,-10.3 z"
         id="path59" />
    </g>
    <g
       id="g61">
      <path
         class="cls-16"
         d="m 151,231.6 c 2,1.4 2.9,1.2 2.9,1.2 0,0 0.9,0.2 2.9,-1.2 2,-1.4 13.6,-15 14,-15.7 0.4,-0.7 2.2,-28.5 -1.3,-31.4 -3.5,-2.9 -15.6,-2.6 -15.6,-2.6 0,0 -12.1,-0.3 -15.6,2.6 -3.5,2.9 -1.7,30.7 -1.3,31.4 0.4,0.7 12,14.3 14,15.7 z"
         id="path60" />
      <path
         class="cls-17"
         d="m 151,231.6 c 2,1.4 2.9,1.2 2.9,1.2 0,0 0.9,0.2 2.9,-1.2 1.3,-0.9 6.6,-6.9 10.3,-11.2 a 27.84,27.84 0 0 0 -13.2,-3.4 26.73,26.73 0 0 0 -13.2,3.4 c 3.8,4.3 9,10.3 10.3,11.2 z"
         id="path61" />
    </g>
    <g
       id="g63">
      <path
         class="cls-16"
         d="m 213.7,228.8 c -2.9,-3.5 -30.7,-1.7 -31.4,-1.3 -0.7,0.4 -14.3,12 -15.7,14 -1.4,2 -1.2,2.9 -1.2,2.9 0,0 -0.2,0.9 1.2,2.9 1.4,2 15,13.6 15.7,14 0.7,0.4 28.5,2.2 31.4,-1.3 2.9,-3.5 2.6,-15.6 2.6,-15.6 0,0 0.3,-12.1 -2.6,-15.6 z"
         id="path62" />
      <path
         class="cls-17"
         d="m 177.9,231.2 c -4.3,3.7 -10.3,9 -11.2,10.3 -1.4,2 -1.2,2.9 -1.2,2.9 0,0 -0.2,0.9 1.2,2.9 0.9,1.3 6.9,6.6 11.2,10.3 a 27.32,27.32 0 0 0 0,-26.4 z"
         id="path63" />
    </g>
    <g
       id="g65">
      <path
         class="cls-16"
         d="m 156.8,257.1 c -2,-1.4 -2.9,-1.2 -2.9,-1.2 0,0 -0.9,-0.2 -2.9,1.2 -2,1.4 -13.6,15 -14,15.7 -0.4,0.7 -2.2,28.5 1.3,31.4 3.5,2.9 15.6,2.6 15.6,2.6 0,0 12.1,0.3 15.6,-2.6 3.5,-2.9 1.7,-30.7 1.3,-31.4 -0.4,-0.7 -12,-14.3 -14,-15.7 z"
         id="path64" />
      <path
         class="cls-17"
         d="m 156.8,257.1 c -2,-1.4 -2.9,-1.2 -2.9,-1.2 0,0 -0.9,-0.2 -2.9,1.2 -1.3,0.9 -6.6,6.9 -10.3,11.2 a 27.84,27.84 0 0 0 13.2,3.4 26.73,26.73 0 0 0 13.2,-3.4 c -3.7,-4.3 -9,-10.3 -10.3,-11.2 z"
         id="path65" />
    </g>
  </g>
  <g
     id="g107"
     transform="translate(-417.4,-40)"
     inkscape:label="ABXY">
    <g
       id="g98">
      <g
         id="g97">
        <path
           class="cls-16"
           d="M 709.9,271 A 26.3,26.3 0 1 1 736.2,244.7 26.33,26.33 0 0 1 709.9,271 Z"
           id="path96" />
        <path
           class="cls-21"
           d="m 709.9,219.5 a 25.25,25.25 0 1 1 -25.3,25.2 25.33,25.33 0 0 1 25.3,-25.2 m 0,-2 a 27.3,27.3 0 1 0 27.3,27.3 27.34,27.34 0 0 0 -27.3,-27.3 z"
           id="path97" />
      </g>
      <path
         class="cls-22"
         d="m 709.9,225.9 a 18.9,18.9 0 1 0 18.9,18.9 18.95,18.95 0 0 0 -18.9,-18.9 z m 0,34.9 a 16,16 0 1 1 16,-16 16,16 0 0 1 -16,16 z"
         id="path98" />
    </g>
    <g
       id="g101">
      <g
         id="g100">
        <path
           class="cls-16"
           d="m 652.3,328.6 a 26.3,26.3 0 1 1 26.3,-26.3 26.33,26.33 0 0 1 -26.3,26.3 z"
           id="path99" />
        <path
           class="cls-21"
           d="m 652.3,277.1 a 25.3,25.3 0 1 1 -25.3,25.3 25.33,25.33 0 0 1 25.3,-25.3 m 0,-2 a 27.3,27.3 0 1 0 27.3,27.3 27.34,27.34 0 0 0 -27.3,-27.3 z"
           id="path100" />
      </g>
      <polygon
         class="cls-23"
         points="654.3,302.4 666.7,290 664.7,288 652.3,300.4 640,288 638,290 650.3,302.4 638,314.7 640,316.7 652.3,304.4 664.7,316.7 666.7,314.7 "
         id="polygon100" />
    </g>
    <g
       id="g103">
      <g
         id="g102">
        <path
           class="cls-16"
           d="M 594.8,271 A 26.3,26.3 0 1 1 621.1,244.7 26.33,26.33 0 0 1 594.8,271 Z"
           id="path101" />
        <path
           class="cls-21"
           d="m 594.7,219.5 a 25.25,25.25 0 1 1 -25.3,25.2 25.33,25.33 0 0 1 25.3,-25.2 m 0,-2 a 27.3,27.3 0 1 0 27.3,27.3 27.34,27.34 0 0 0 -27.3,-27.3 z"
           id="path102" />
      </g>
      <path
         class="cls-24"
         d="M 606.3,230.4 H 580.5 V 259 h 28.6 v -28.6 z m 0,25.9 h -23 v -23 h 23 z"
         id="path103" />
    </g>
    <g
       id="g106">
      <g
         id="g105">
        <path
           class="cls-16"
           d="m 652.3,213.5 a 26.3,26.3 0 1 1 26.3,-26.3 26.33,26.33 0 0 1 -26.3,26.3 z"
           id="path104" />
        <path
           class="cls-21"
           d="M 652.3,162 A 25.3,25.3 0 1 1 627,187.3 25.33,25.33 0 0 1 652.3,162 m 0,-2 a 27.3,27.3 0 1 0 27.3,27.3 27.34,27.34 0 0 0 -27.3,-27.3 z"
           id="path105" />
      </g>
      <path
         class="cls-25"
         d="m 668.3,195.2 -16,-27.6 -16,27.6 -1.6,2.8 h 35.2 z m -16,0 h -12.7 l 12.7,-21.9 12.7,21.9 z"
         id="path106" />
    </g>
  </g>
  <g
     id="g111"
     inkscape:label="R1"
     transform="translate(-412.7)">
    <path
       class="cls-28"
       d="m 697.2,109.9 a 2.14,2.14 0 0 0 -1.1,-1.9 c -4.5,-2.9 -23.4,-13.6 -51.5,-13.6 -26.9,0 -41.1,5.9 -45.1,8 a 2.2,2.2 0 0 0 -1.2,2 c 0,0 9.8,-2.9 47.5,-2.9 37.7,0 51.4,8.4 51.4,8.4 z"
       id="path110" />
    <path
       class="cls-8"
       d="m 697.1,116.8 v 0 -6.9 c 0,0 -13.7,-8.4 -51.4,-8.4 -37.7,0 -47.5,2.9 -47.5,2.9 v 11 0 c 7.7,-1.3 21.2,-2.6 44.1,-2.6 28.5,0.1 45.9,2.4 54.8,4 z"
       id="path111" />
  </g>
  <g
     id="g113"
     inkscape:label="L1"
     transform="translate(-95.799795)">
    <path
       class="cls-28"
       d="m 108.8,109.9 a 2.14,2.14 0 0 1 1.1,-1.9 c 4.5,-2.9 23.4,-13.6 51.5,-13.6 26.9,0 41.1,5.9 45.1,8 a 2.2,2.2 0 0 1 1.2,2 c 0,0 -9.8,-2.9 -47.5,-2.9 -37.7,0 -51.4,8.4 -51.4,8.4 z"
       id="path112" />
    <path
       class="cls-8"
       d="m 108.9,116.8 v 0 -6.9 c 0,0 13.7,-8.4 51.4,-8.4 37.7,0 47.5,2.9 47.5,2.9 v 11 0 c -7.7,-1.3 -21.2,-2.6 -44.1,-2.6 -28.5,0.1 -45.9,2.4 -54.8,4 z"
       id="path113" />
  </g>
  <g
     id="g118"
     inkscape:label="R2"
     transform="translate(-412.7)">
    <g
       id="g115">
      <path
         class="cls-8"
         d="m 697.2,90.8 c 0,0 -32.7,-3.2 -50.6,-3.2 -17.9,0 -48.4,2.4 -48.4,2.4 0,0 3.1,-44.7 4.8,-52 1.7,-7.3 7.7,-21.3 16.9,-27.9 C 629.1,3.5 631.8,0 642.6,0 c 10.8,0 25.4,6.4 34.6,21.4 9.2,15 20,69.4 20,69.4 z"
         id="path114" />
      <path
         class="cls-28"
         d="m 598.7,83.2 c 0,0 26.1,-4.4 49,-4.4 22.9,0 47.9,4.4 47.9,4.4 1,4.7 1.6,7.6 1.6,7.6 0,0 -32.7,-3.2 -50.6,-3.2 -17.9,0 -48.4,2.4 -48.4,2.4 0,0 0.2,-2.7 0.5,-6.8 z"
         id="path115" />
    </g>
    <g
       class="cls-29"
       id="g117">
      <path
         class="cls-5"
         d="m 648.7,65.7 -3.2,2.6 a 6.71,6.71 0 0 0 -2,4.5 h 9.8 V 70.2 H 647 a 6.71,6.71 0 0 1 2.1,-1.9 12.47,12.47 0 0 0 2.7,-2.1 4.77,4.77 0 0 0 1.3,-3.3 4.22,4.22 0 0 0 -1.4,-3.3 5.13,5.13 0 0 0 -3.5,-1.2 c -3.1,0 -4.7,1.7 -4.7,5 h 2.7 q 0,-2.7 2.1,-2.7 a 1.83,1.83 0 0 1 2,2.1 c 0.2,1.1 -0.4,2 -1.6,2.9 z"
         id="path116" />
      <path
         class="cls-5"
         d="m 631.1,67.2 h 3 c 1.5,0 2.3,0.6 2.4,1.9 0.1,1.3 0.2,2.5 0.3,3.8 h 3.3 v -0.4 c -0.5,-0.2 -0.7,-0.7 -0.7,-1.5 a 2.81,2.81 0 0 1 0.1,-0.8 v -0.7 a 3.56,3.56 0 0 0 -1.8,-3.5 3.25,3.25 0 0 0 2.2,-3.4 3.54,3.54 0 0 0 -1.3,-3 4.72,4.72 0 0 0 -3.2,-1 h -7.3 v 14.3 h 3 z m 0,-6.2 h 3.7 c 1.4,0 2.1,0.6 2.1,1.9 0,1.3 -0.8,1.9 -2.3,1.9 h -3.5 z"
         id="path117" />
    </g>
  </g>
  <g
     id="g121"
     inkscape:label="L2"
     transform="translate(-95.8)">
    <g
       id="g119">
      <path
         class="cls-8"
         d="m 108.8,90.8 c 0,0 32.7,-3.2 50.6,-3.2 17.9,0 48.3,2.4 48.3,2.4 0,0 -3.1,-44.7 -4.8,-52 C 201.2,30.7 195.2,16.7 186,10.1 176.8,3.5 174.2,0 163.4,0 152.6,0 138,6.4 128.8,21.4 c -9.2,15 -20,69.4 -20,69.4 z"
         id="path118" />
      <path
         class="cls-28"
         d="m 207.3,83.2 c 0,0 -26.1,-4.4 -49,-4.4 -22.9,0 -47.9,4.4 -47.9,4.4 -1,4.7 -1.6,7.6 -1.6,7.6 0,0 32.7,-3.2 50.6,-3.2 17.9,0 48.3,2.4 48.3,2.4 0,0 -0.1,-2.7 -0.4,-6.8 z"
         id="path119" />
    </g>
    <g
       class="cls-29"
       id="g120">
      <path
         class="cls-5"
         d="m 173.3,65.7 -3.2,2.6 a 6.71,6.71 0 0 0 -2,4.5 h 9.8 v -2.6 h -6.2 a 6.71,6.71 0 0 1 2.1,-1.9 12.47,12.47 0 0 0 2.7,-2.1 4.77,4.77 0 0 0 1.3,-3.3 4.22,4.22 0 0 0 -1.4,-3.3 5.13,5.13 0 0 0 -3.5,-1.2 c -3.1,0 -4.7,1.7 -4.7,5 h 2.7 q 0,-2.7 2.1,-2.7 a 1.83,1.83 0 0 1 2,2.1 c 0.1,1.1 -0.5,2 -1.7,2.9 z"
         id="path120" />
      <polygon
         class="cls-5"
         points="157.8,70.2 157.8,58.5 154.7,58.5 154.7,72.8 164.8,72.8 164.8,70.2 "
         id="polygon120" />
    </g>
  </g>
</svg>
